<svg version="1.1" xmlns="http://www.w3.org/2000/svg" xmlns:xlink="http://www.w3.org/1999/xlink" width="1440.000000pt" height="624.000000pt" viewBox="0,0,255.98738,110.92436"><g fill="#62825d" fill-rule="nonzero" stroke="none" stroke-width="1" stroke-linecap="butt" stroke-linejoin="miter" stroke-miterlimit="10" stroke-dasharray="" stroke-dashoffset="0" font-family="none" font-weight="none" font-size="none" text-anchor="none" style="mix-blend-mode: normal"><g transform="translate(0.02179,5.44897) scale(0.17778,0.17778)"><g transform="translate(0,624) scale(0.1,-0.1)"><path d="M13479,4449c-117,-8 -181,-41 -323,-167c-79,-69 -122,-89 -216,-102c-107,-14 -257,-53 -312,-81c-116,-59 -258,-183 -319,-279c-63,-97 -76,-126 -103,-218c-22,-76 -26,-111 -26,-216c0,-191 42,-330 142,-476c44,-63 307,-321 383,-376c239,-170 592,-177 841,-18c71,46 205,180 254,255c37,58 82,183 99,279c6,30 13,113 15,183c3,71 11,146 17,166c6,21 39,69 74,109c85,96 123,153 147,220c42,120 31,240 -35,352c-17,30 -84,107 -148,171c-176,177 -267,213 -490,198zM13725,4323c91,-48 157,-112 196,-190c29,-59 34,-80 37,-162c5,-130 -21,-196 -127,-321c-43,-50 -90,-115 -105,-143c-24,-49 -31,-75 -55,-217c-40,-243 -180,-438 -391,-545c-74,-38 -228,-75 -309,-75c-77,0 -221,35 -305,74c-175,80 -324,262 -371,450c-26,105 -23,296 5,381c46,138 102,227 204,322c117,109 218,152 451,189c113,18 177,50 294,148c50,41 101,81 113,88c48,27 105,37 203,34c90,-2 106,-5 160,-33z"></path><path d="M12922,3710c-79,-17 -139,-61 -190,-139c-31,-49 -35,-63 -40,-143c-5,-84 -3,-91 27,-153c42,-86 124,-160 193,-174c141,-31 265,13 343,119c63,86 78,180 46,290c-16,53 -99,150 -151,177c-52,26 -161,37 -228,23z"></path><path d="M352,4403l-132,-4l2,-922l3,-922l95,-3c52,-2 137,0 187,3l93,7l2,291l3,292l245,6c240,6 247,7 340,37c117,38 176,75 260,161c110,112 160,252 160,446c-1,154 -43,272 -137,387c-95,116 -218,187 -359,207c-74,11 -545,19 -762,14zM1048,4063c74,-37 138,-111 158,-181c20,-69 15,-191 -10,-244c-28,-58 -93,-126 -150,-156c-49,-25 -59,-27 -232,-30c-158,-3 -183,-2 -197,13c-15,15 -17,49 -17,305c0,159 3,295 6,304c5,14 32,16 197,16c189,0 193,0 245,-27z"></path><path d="M11490,4056c0,-293 -2,-345 -15,-350c-18,-7 -40,15 -65,64c-34,67 -116,137 -189,162c-135,46 -317,23 -434,-55c-190,-128 -280,-335 -279,-647c0,-205 43,-364 131,-479c104,-137 235,-215 384,-227c169,-15 287,42 396,189c64,87 76,78 76,-53v-105h175h174l1,45c2,43 5,1431 5,1683v117h-180h-180zM11314,3635c67,-32 88,-54 131,-145c48,-97 63,-202 47,-329c-16,-134 -37,-186 -102,-252c-77,-78 -110,-94 -195,-93c-131,1 -231,78 -275,214c-22,65 -25,94 -25,215c0,174 22,251 93,327c81,87 218,114 326,63z"></path><path d="M2365,3949c-149,-22 -250,-69 -353,-164c-72,-67 -140,-169 -176,-266c-39,-107 -50,-341 -21,-480c8,-42 35,-115 61,-169c38,-76 61,-109 119,-165c86,-84 197,-145 310,-170c116,-26 302,-17 410,20c154,53 279,158 358,301c56,101 78,194 84,359c4,126 2,150 -20,235c-26,99 -101,246 -155,304c-145,154 -383,229 -617,195zM2562,3666c86,-31 146,-102 189,-226c20,-56 23,-84 23,-205c-1,-118 -4,-150 -23,-204c-35,-101 -103,-187 -166,-211c-43,-17 -164,-15 -207,3c-49,21 -123,90 -138,130c-7,17 -22,51 -32,75c-28,63 -41,203 -29,298c11,83 54,202 93,254c57,78 197,119 290,86z"></path><path d="M4100,3954c-131,-25 -220,-97 -259,-209c-8,-22 -19,-43 -25,-47c-30,-20 -33,-7 -28,110l5,119l-63,6c-79,9 -179,9 -248,1l-52,-7l2,-686l3,-686l85,1c47,0 129,1 182,2l97,2l3,433l3,432l30,48c49,79 70,101 121,127c45,23 59,25 171,24l121,-2l12,29c15,36 10,273 -6,289c-13,13 -114,21 -154,14z"></path><path d="M6485,3949c-98,-16 -175,-47 -260,-104c-135,-91 -200,-174 -261,-335c-28,-73 -28,-80 -29,-270c0,-189 1,-198 28,-275c37,-104 121,-230 196,-292c68,-57 181,-116 266,-138c113,-29 330,-15 454,29c197,71 357,270 396,494c30,171 13,385 -40,500c-55,121 -131,213 -229,280c-150,101 -340,142 -521,111zM6726,3652c75,-39 118,-98 157,-218c49,-147 34,-351 -33,-485c-23,-43 -90,-106 -136,-125c-50,-21 -170,-18 -222,6c-119,54 -182,201 -182,421c1,226 87,382 234,420c49,13 139,3 182,-19z"></path><path d="M8075,3950c-162,-25 -280,-83 -390,-196c-54,-55 -133,-202 -156,-291c-26,-102 -33,-231 -20,-340c19,-154 50,-233 147,-373c53,-75 160,-149 284,-196c71,-27 83,-29 240,-29c154,1 170,2 243,28c121,42 237,131 287,218c57,99 72,135 79,197c5,37 7,69 5,71c-7,8 -201,12 -271,6l-72,-7l-15,-51c-16,-57 -73,-124 -129,-154c-51,-27 -180,-24 -237,5c-61,32 -97,67 -128,127c-39,73 -43,89 -52,205c-20,243 45,410 185,476c65,31 168,33 224,4c53,-27 115,-100 137,-162l19,-53l168,-3c194,-3 188,-6 168,92c-20,97 -52,155 -135,243c-60,64 -94,91 -149,118c-122,60 -293,86 -432,65z"></path><path d="M9550,3954c-96,-18 -198,-50 -247,-76c-101,-52 -202,-168 -232,-265c-20,-62 -12,-73 54,-73c31,0 99,-5 153,-11c95,-10 97,-10 115,13c47,60 114,119 154,134c63,24 167,15 226,-19c70,-41 97,-79 97,-137c0,-123 -23,-134 -344,-166c-186,-18 -297,-52 -384,-118c-75,-58 -109,-109 -127,-197c-36,-172 2,-311 112,-409c93,-83 202,-115 363,-108c132,7 221,47 319,147c49,50 72,67 78,58c4,-6 8,-48 8,-92v-80h170h170l8,55c4,30 6,258 4,505c-3,441 -4,451 -26,515c-56,156 -193,267 -376,305c-80,17 -248,28 -295,19zM9865,3070c0,-108 -2,-119 -28,-162c-29,-51 -67,-83 -134,-117c-95,-48 -266,-17 -321,58c-43,59 -26,174 32,223c34,28 132,57 265,79c68,10 131,24 140,29c40,24 46,10 46,-110z"></path><path d="M4478,3931c-26,-4 -50,-9 -53,-12c-3,-3 3,-28 14,-55c11,-27 34,-96 52,-154c17,-58 36,-110 40,-116c5,-6 17,-37 28,-70c10,-32 49,-144 86,-249c36,-104 70,-207 76,-229c5,-21 15,-48 21,-60c14,-25 115,-315 130,-371c18,-67 11,-65 227,-64c108,0 204,4 214,8c20,7 29,31 98,236c22,66 46,134 54,150c7,17 18,46 23,65c6,19 27,80 47,135c20,55 43,125 51,155c9,30 24,70 33,90c10,19 21,49 25,65c4,17 14,44 21,60c7,17 34,91 59,165c25,74 52,153 60,175c21,56 20,63 -12,69c-35,8 -302,15 -333,9c-20,-4 -28,-17 -47,-81c-12,-42 -38,-131 -58,-197c-57,-195 -63,-216 -88,-312c-14,-50 -29,-100 -34,-110c-5,-10 -25,-85 -43,-166c-30,-134 -35,-148 -54,-145c-11,2 -21,12 -23,23c-3,21 -78,284 -112,395c-11,36 -20,71 -20,78c0,7 -9,38 -21,70c-11,31 -29,89 -39,127c-42,155 -68,242 -82,276c-15,35 -17,36 -84,42c-82,8 -190,7 -256,-2z"></path></g></g></g></svg>